PathFileType	4	(X/Y/Z)	C:\Users\Basilio\Documents\Thesis Gigler\squatting_fais\c3dfiles\019\SLS_back_pre3\markers_experimental.trc
DataRate	CameraRate	NumFrames	NumMarkers	Units	OrigDataRate	OrigDataStartFrame	OrigNumFrames
200.000000	200.000000	4	59	mm	200.000000	1358	1552
Frame#	Time	LBHD			RBHD			C7			T10			CLAV			LSHO			LUUPA			LMUPA			LDUPA			LLEP			LMEP			LRAD			LUL			LRFIN			RSHO			RUPA1			RMUPA			RDUPA			RLEP			RMEP			RRAD			RUL			RUFIN			LASI			RASI			USACR			LSACR			RSACR			LTHI1			LTHI2			LTHI3			LTHI4			LLFC			LTIB1			LTIB2			LTIB3			LTIB4			LLMAL			LMMAL			LHEE			LMT2			LMT5			RTHI			RTHI2			RTHI4			RLFC			RTIB1			RTIB2			RTIB3			RTIB4			RLMAL			RMMAL			RHEE			RMT1			RMT2			RMT5			FHD			LMT1			RTHI3			
		X1	Y1	Z1	X2	Y2	Z2	X3	Y3	Z3	X4	Y4	Z4	X5	Y5	Z5	X6	Y6	Z6	X7	Y7	Z7	X8	Y8	Z8	X9	Y9	Z9	X10	Y10	Z10	X11	Y11	Z11	X12	Y12	Z12	X13	Y13	Z13	X14	Y14	Z14	X15	Y15	Z15	X16	Y16	Z16	X17	Y17	Z17	X18	Y18	Z18	X19	Y19	Z19	X20	Y20	Z20	X21	Y21	Z21	X22	Y22	Z22	X23	Y23	Z23	X24	Y24	Z24	X25	Y25	Z25	X26	Y26	Z26	X27	Y27	Z27	X28	Y28	Z28	X29	Y29	Z29	X30	Y30	Z30	X31	Y31	Z31	X32	Y32	Z32	X33	Y33	Z33	X34	Y34	Z34	X35	Y35	Z35	X36	Y36	Z36	X37	Y37	Z37	X38	Y38	Z38	X39	Y39	Z39	X40	Y40	Z40	X41	Y41	Z41	X42	Y42	Z42	X43	Y43	Z43	X44	Y44	Z44	X45	Y45	Z45	X46	Y46	Z46	X47	Y47	Z47	X48	Y48	Z48	X49	Y49	Z49	X50	Y50	Z50	X51	Y51	Z51	X52	Y52	Z52	X53	Y53	Z53	X54	Y54	Z54	X55	Y55	Z55	X56	Y56	Z56	X57	Y57	Z57	X58	Y58	Z58	X59	Y59	Z59	

1359	6.79	-417.1030273437501	1681.355346679688	-951.534118652344	-401.1475524902345	1669.120483398438	-812.8891601562502	-424.440887451172	1500.325927734375	-881.4417724609377	-429.9910888671876	1204.637939453125	-873.5664672851565	-284.3254089355469	1464.360595703125	-905.048767089844	-370.5184936523438	1496.8193359375	-1053.987548828125	-362.1065368652344	1321.077026367188	-1111.954833984375	-330.5659790039063	1295.705688476563	-1083.975463867188	-355.4522705078126	1254.228637695313	-1119.74658203125	-389.4824218750001	1176.648315429688	-1123.505493164063	-416.008270263672	1165.792602539063	-1070.693603515625	-302.3060913085938	936.9871826171877	-1124.80322265625	-365.1864318847657	937.7418212890627	-1143.812133789063	-294.0019226074219	863.680358886719	-1147.416748046875	-320.5927734375001	1483.025512695313	-745.9599609375001	-370.7766113281251	1305.658203125	-647.7312011718751	-336.2971191406251	1278.991943359375	-666.0531616210939	-372.2302551269532	1236.162109375	-643.0825195312501	-373.4447631835938	1163.331909179688	-643.1414184570314	-416.9490966796876	1162.001342773438	-682.8804931640626	-303.6830444335938	920.5105590820315	-656.7140502929689	-353.4110107421876	921.5046386718752	-610.7254028320314	-300.1710815429688	841.2203369140627	-627.0352783203126	-286.1203002929688	1010.922302246094	-1017.017578125	-238.8745117187501	1006.776794433594	-813.752380371094	-420.7568664550782	1077.11572265625	-876.1962890625002	-431.9764404296876	1043.997680664063	-901.769470214844	-417.5054626464845	1045.6611328125	-846.0154418945315	-347.3059387207032	749.3044433593751	-1083.966674804688	-303.9468078613282	674.8215332031251	-1085.927368164063	-257.6581420898438	683.2485351562501	-1074.8076171875	-324.7039184570313	619.5715332031251	-1070.729248046875	-321.9340515136719	522.6883544921876	-1058.45849609375	-279.8636474609376	380.6693115234376	-1030.50634765625	-339.5554504394532	341.3654479980469	-1081.766479492188	-302.5815124511719	335.1911010742188	-1059.19189453125	-309.5519409179688	255.3454742431641	-1025.245361328125	-386.253631591797	132.3843078613282	-1043.683471679688	-367.1206665039063	138.2127380371094	-967.9254150390627	-447.9537658691407	102.9143524169922	-991.5666503906252	-242.7566223144532	55.01379394531251	-1022.470886230469	-290.1368713378907	41.01202392578126	-1075.242919921875	-272.7691955566407	813.0816650390627	-720.4035034179689	-234.6899108886719	754.6478271484376	-729.3188476562501	-259.1612854003907	679.0600585937501	-715.9909057617189	-300.8320617675782	517.6763916015626	-728.7694702148439	-284.4490966796876	330.1669616699219	-772.7237548828127	-336.9741210937501	261.4095764160157	-701.7662353515626	-308.2062377929688	253.3023071289063	-738.5028686523439	-325.6815185546876	208.8601074218751	-773.4114379882815	-387.8106994628907	132.4067840576172	-714.3077392578126	-375.1197509765626	131.424545288086	-790.7099609375002	-456.5647277832032	105.5455398559571	-756.0857543945314	-257.9996948242188	55.42872238159181	-786.1001586914065	-249.1751556396485	56.44908142089845	-743.0812377929689	-291.5104675292969	52.41334533691408	-685.7364501953126	-273.5010986328126	1727.135498046875	-825.094909667969	-242.3358306884766	57.829647064209	-980.6956787109377	-212.0629272460938	760.8062744140626	-754.2760009765626	
1360	6.795	-417.0445251464845	1681.42333984375	-953.1984863281252	-400.8318786621095	1669.160522460938	-814.363220214844	-424.3070373535157	1500.434326171875	-882.828552246094	-429.7548217773439	1204.666625976563	-874.7503051757815	-284.2635192871094	1464.275024414063	-906.4971313476565	-370.4671936035157	1496.747192382813	-1055.413452148438	-362.7617492675782	1320.8271484375	-1113.37060546875	-331.5353698730469	1295.451904296875	-1085.429077148438	-356.4840698242188	1254.048950195313	-1121.14990234375	-391.1819763183595	1176.771118164063	-1125.026000976563	-417.5748901367189	1165.941284179688	-1072.1298828125	-305.6069946289063	936.2501220703127	-1126.665405273438	-368.5486145019532	937.652282714844	-1145.773315429688	-298.1188049316407	862.987487792969	-1149.291870117188	-320.2621765136719	1483.128051757813	-747.4257202148439	-371.0545349121094	1306.076538085938	-649.1383056640626	-336.9740295410157	1278.904418945313	-667.4418334960939	-372.8697814941407	1236.815307617188	-644.5545654296876	-374.6531372070313	1163.942016601563	-644.4429931640626	-418.2054748535157	1162.72509765625	-684.3641357421876	-306.9636840820313	919.9912109375002	-657.1206054687501	-356.7496948242188	922.2574462890627	-610.8255004882814	-305.3566589355469	840.5786132812502	-627.8770751953126	-285.8846740722657	1010.879150390625	-1018.018005371094	-238.8472595214844	1006.724853515625	-814.8726806640627	-420.6415405273439	1077.150512695313	-877.3809814453127	-431.8936767578126	1044.039672851563	-902.8527832031252	-417.5720214843751	1045.697509765625	-847.2131958007815	-345.9592590332032	748.5197143554689	-1084.445190429688	-303.6110839843751	674.6527099609376	-1086.468627929688	-257.3999328613282	683.1671752929689	-1075.232055664063	-324.4570312500001	619.4870605468751	-1071.380737304688	-321.9311218261719	522.6298828125001	-1058.966186523438	-280.2785034179688	380.6372985839844	-1030.213012695313	-339.6064758300782	341.2093505859376	-1082.059204101563	-302.5328369140626	335.0841369628907	-1059.468872070313	-309.6678161621094	255.2954101562501	-1025.434204101563	-386.2652587890626	132.3088989257813	-1043.784423828125	-367.1401977539063	138.2182922363282	-968.0472412109377	-447.9962463378907	102.906364440918	-991.6304321289065	-242.7677764892579	55.00384902954103	-1022.493469238281	-290.0956726074219	41.00239944458009	-1075.278076171875	-272.8846435546876	809.195739746094	-721.3457031250001	-234.6737365722657	754.7335205078126	-730.1781005859376	-259.2526245117188	679.2803344726564	-716.7623901367189	-300.8315124511719	517.9367065429689	-729.3972167968751	-284.3377685546876	330.2293395996094	-772.948669433594	-336.9169311523438	261.5888061523438	-702.0408935546876	-308.1749877929688	253.3897705078126	-738.5887451171876	-325.5841369628907	208.9086151123047	-773.322448730469	-387.714813232422	132.5025634765625	-714.4238281250001	-375.0062866210938	131.4839019775391	-790.7954711914065	-456.5891723632814	105.5364608764649	-756.1384277343751	-258.0830383300782	55.4106788635254	-786.1608886718752	-249.1129455566407	56.39378356933595	-743.1198120117189	-291.4944763183594	52.45494461059572	-685.7493896484376	-273.1311645507813	1727.139038085938	-826.5552368164065	-242.2660522460938	57.84248352050783	-980.7396240234377	-211.9249877929688	760.9104614257814	-755.0488281250001	
1361	6.8	-416.4650878906251	1681.38525390625	-954.611755371094	-400.5975952148439	1669.107788085938	-815.8474731445315	-423.8573608398439	1500.386596679688	-884.295104980469	-429.7747192382814	1204.693481445313	-876.0426025390627	-283.9776306152344	1464.219116210938	-907.9656372070315	-370.2923583984376	1496.691162109375	-1056.930908203125	-363.4841308593751	1320.689208984375	-1114.857421875	-332.4639587402344	1295.088134765625	-1086.941650390625	-357.6660766601563	1253.89453125	-1122.670043945313	-392.8403320312501	1176.86865234375	-1126.519165039063	-418.9986877441407	1166.130615234375	-1073.538818359375	-308.8228454589844	935.6174926757815	-1128.485473632813	-368.9980468750001	936.7712402343752	-1146.557739257813	-301.9233703613282	862.200866699219	-1151.206665039063	-319.9436340332032	1483.281005859375	-748.8671264648439	-371.6031799316407	1306.376342773438	-650.7079467773439	-337.4461975097657	1279.161987304688	-668.8713989257814	-373.5854187011719	1237.111328125	-646.0051269531251	-375.7339477539063	1164.409912109375	-645.8956298828126	-419.1415100097657	1163.372314453125	-685.8342285156251	-312.1626586914063	919.637634277344	-658.6875610351564	-359.8653259277344	922.8355712890627	-611.0308837890626	-310.3589477539063	839.9942016601565	-628.7513427734376	-285.7749938964844	1010.725769042969	-1019.089904785156	-238.8368072509766	1006.820068359375	-815.8829345703127	-420.4763793945314	1077.147827148438	-878.5012817382815	-431.7488403320314	1044.017700195313	-904.0591430664065	-417.7079162597657	1045.82568359375	-848.4812011718752	-345.6225891113282	748.4544677734376	-1085.287963867188	-303.4080810546876	674.5963134765626	-1087.09228515625	-257.2213745117188	683.0557250976564	-1075.740844726563	-324.3153991699219	619.3632202148439	-1072.063598632813	-321.9469299316407	522.5664672851564	-1059.591552734375	-280.4123535156251	380.5068359375001	-1030.489990234375	-339.7814636230469	341.0737304687501	-1082.115112304688	-302.5962829589844	334.9882202148438	-1059.697998046875	-309.6182250976563	255.2497558593751	-1025.574584960938	-386.2358703613282	132.1276550292969	-1043.887817382813	-367.2428894042969	138.2448425292969	-968.1287231445315	-447.8817138671876	102.6917419433594	-991.7740478515627	-242.7662353515626	55.00968551635744	-1022.488098144531	-290.0504455566407	40.95894622802735	-1075.320678710938	-272.8365783691407	809.3599853515627	-722.2845458984376	-234.6987457275391	754.7922973632814	-730.9679565429689	-259.1943359375001	679.4293823242189	-717.4041748046876	-300.8123779296876	518.0111083984376	-729.9168090820314	-284.2922668457032	330.2740783691407	-773.1580200195315	-336.9733581542969	261.8400268554688	-702.3972167968751	-308.2397766113282	253.4773254394532	-738.7528076171876	-325.5281677246094	208.9815826416016	-773.3983154296877	-387.7967529296876	132.5675811767578	-714.5755004882814	-375.0199279785157	131.4949035644532	-790.9282836914065	-456.5445251464845	105.616813659668	-756.1141357421876	-258.0567016601563	55.43662261962892	-786.195251464844	-249.0996704101563	56.4561233520508	-743.0802001953126	-291.4840087890626	52.54528808593751	-685.7791748046876	-272.6666870117188	1727.166259765625	-827.7337036132815	-242.2713317871094	57.85028457641603	-980.749206542969	-211.9723052978516	761.1025390625001	-755.7420654296876	
1362	6.805	-416.2508239746095	1681.451416015625	-956.0869140625002	-400.4156799316407	1668.549560546875	-817.3303833007815	-423.6033020019532	1500.41162109375	-885.707214355469	-429.735321044922	1204.779663085938	-877.2207641601565	-283.8217468261719	1464.161010742188	-909.4064941406252	-370.1389465332032	1496.572021484375	-1058.348022460938	-364.0910034179688	1320.497680664063	-1116.25341796875	-333.1095886230469	1294.693969726563	-1088.486694335938	-358.6309509277344	1253.642578125	-1124.128784179688	-394.0854797363282	1176.837524414063	-1127.841918945313	-420.4288330078126	1166.373291015625	-1074.925415039063	-311.9591369628907	935.0747070312502	-1130.284423828125	-374.6320495605469	937.5327148437502	-1149.147705078125	-305.5132141113282	861.456970214844	-1153.059692382813	-319.7243652343751	1483.515625	-750.2241821289064	-371.9514770507813	1306.754272460938	-652.1291503906251	-337.7202758789063	1279.483154296875	-670.3388061523439	-374.2584838867188	1237.622802734375	-647.4725952148439	-376.8800048828126	1165.0751953125	-647.2058105468751	-420.2320556640626	1163.8359375	-687.3629150390626	-315.8843383789063	919.274108886719	-659.6658935546876	-362.7621154785157	923.7419433593752	-611.2546997070314	-315.1369018554688	839.607360839844	-629.7161254882814	-285.6346435546876	1010.588073730469	-1020.150329589844	-238.6675262451172	1006.735168457031	-816.9036865234377	-420.3824768066407	1077.179321289063	-879.5823364257815	-431.627655029297	1044.08251953125	-905.121765136719	-417.6602172851564	1045.85400390625	-849.560974121094	-344.7101745605469	748.5311279296876	-1085.88427734375	-303.0945739746094	674.4639892578126	-1087.6455078125	-257.0050354003907	682.9495849609376	-1076.265625	-324.0196533203126	619.2620849609376	-1072.633422851563	-321.9068908691407	522.4447021484376	-1060.136352539063	-280.5105895996094	380.4049987792969	-1030.74951171875	-339.8950805664063	340.9473266601563	-1082.4150390625	-302.6094970703126	334.8627929687501	-1059.975219726563	-309.6781616210938	255.1632995605469	-1025.83056640625	-386.2905578613282	132.0719451904297	-1043.987426757813	-367.1805419921876	138.1444854736328	-968.2171630859377	-447.9129028320314	102.716178894043	-991.747985839844	-242.7814941406251	54.9829788208008	-1022.516052246094	-290.0565490722657	40.88975143432618	-1075.340698242188	-272.9742126464844	809.4801025390627	-723.1609497070314	-234.794174194336	754.9324340820314	-731.7236938476564	-259.1596069335938	679.5260620117189	-718.0225830078126	-301.0064697265626	518.2971191406251	-730.5154418945314	-284.1909790039063	330.3000488281251	-773.4541625976565	-336.9342651367188	262.0643310546876	-702.6012573242189	-308.2699584960938	253.6912689208985	-738.9017944335939	-325.4051208496094	209.1118316650391	-773.3480224609377	-387.731170654297	132.6749420166016	-714.6283569335939	-375.0145263671876	131.5684661865235	-790.9751586914065	-456.6311035156251	105.701400756836	-756.0931396484376	-258.0668334960938	55.43220520019533	-786.2251586914065	-249.0694885253907	56.46897888183595	-743.1071777343751	-291.4227600097657	52.524471282959	-685.8137207031251	-272.0174865722657	1727.039306640625	-828.9199829101565	-242.3070526123047	57.82912445068361	-980.7539062500002	-211.9590454101563	760.9337158203126	-756.4212646484376	
